# Blender 3.4.1
# www.blender.org
mtllib cordas_010.mtl
o cordas.010
v 0.011996 0.013370 -0.360453
v 0.014690 0.009496 0.287650
v 0.011954 0.013365 -0.360453
v 0.012038 0.013365 -0.360453
v 0.012078 0.013353 -0.360454
v 0.014717 0.009464 0.287650
v 0.014737 0.009427 0.287650
v 0.014719 0.009450 0.289035
v 0.014739 0.009413 0.289035
v 0.014719 0.006577 0.305211
v 0.014692 0.009483 0.289036
v 0.014660 0.009510 0.289036
v 0.014692 0.006600 0.305234
v 0.014660 0.006618 0.305253
v 0.014623 0.006632 0.305267
v 0.014582 0.006641 0.305276
v 0.014623 0.009530 0.289036
v 0.014620 0.009543 0.287651
v 0.014582 0.009542 0.289036
v 0.014540 0.009546 0.289036
v 0.014580 0.009555 0.287651
v 0.014538 0.009559 0.287651
v 0.011876 0.013333 -0.360454
v 0.011913 0.013353 -0.360454
v 0.011844 0.013307 -0.360454
v 0.011817 0.013274 -0.360454
v 0.014496 0.009555 0.287651
v 0.011797 0.013237 -0.360455
v 0.014456 0.009543 0.287651
v 0.011785 0.013197 -0.360455
v 0.014418 0.009523 0.287651
v 0.011781 0.013155 -0.360455
v 0.011785 0.013113 -0.360456
v 0.014359 0.009464 0.287650
v 0.011797 0.013072 -0.360456
v 0.014339 0.009427 0.287650
v 0.011817 0.013035 -0.360457
v 0.014327 0.009386 0.287649
v 0.011844 0.013003 -0.360457
v 0.011876 0.012976 -0.360457
v 0.014327 0.009302 0.287649
v 0.011913 0.012956 -0.360457
v 0.014339 0.009262 0.287648
v 0.011954 0.012944 -0.360457
v 0.014359 0.009225 0.287648
v 0.011996 0.012940 -0.360457
v 0.014386 0.009192 0.287648
v 0.012038 0.012944 -0.360457
v 0.012115 0.013333 -0.360454
v 0.012148 0.013307 -0.360454
v 0.014749 0.009386 0.287649
v 0.014753 0.009344 0.287649
v 0.014751 0.009373 0.289034
v 0.014755 0.009331 0.289034
v 0.014751 0.006523 0.305155
v 0.014755 0.006493 0.305125
v 0.014739 0.006551 0.305184
v 0.014751 0.006464 0.305095
v 0.014739 0.006436 0.305067
v 0.014751 0.009289 0.289034
v 0.014739 0.009249 0.289033
v 0.014749 0.009302 0.287649
v 0.012175 0.013274 -0.360454
v 0.014737 0.009262 0.287648
v 0.012194 0.013237 -0.360455
v 0.014717 0.009225 0.287648
v 0.012207 0.013197 -0.360455
v 0.014690 0.009192 0.287648
v 0.014719 0.009211 0.289033
v 0.014692 0.009179 0.289033
v 0.014719 0.006410 0.305040
v 0.014692 0.006387 0.305017
v 0.014660 0.006368 0.304998
v 0.014623 0.006354 0.304984
v 0.014660 0.009152 0.289032
v 0.014623 0.009132 0.289032
v 0.014657 0.009166 0.287647
v 0.014620 0.009146 0.287647
v 0.012207 0.013113 -0.360456
v 0.012194 0.013072 -0.360456
v 0.012211 0.013155 -0.360455
v 0.012175 0.013035 -0.360457
v 0.012148 0.013003 -0.360457
v 0.014580 0.009133 0.287647
v 0.014538 0.009129 0.287647
v 0.014582 0.009120 0.289032
v 0.014540 0.009116 0.289032
v 0.014582 0.006346 0.304975
v 0.014540 0.006343 0.304972
v 0.014498 0.006346 0.304975
v 0.014458 0.006354 0.304984
v 0.014498 0.009120 0.289032
v 0.014458 0.009132 0.289032
v 0.014496 0.009133 0.287647
v 0.012115 0.012976 -0.360457
v 0.014456 0.009146 0.287647
v 0.012078 0.012956 -0.360457
v 0.014418 0.009166 0.287647
v 0.014421 0.009152 0.289032
v 0.014388 0.009179 0.289033
v 0.014421 0.006368 0.304998
v 0.014388 0.006387 0.305017
v 0.014361 0.006410 0.305040
v 0.014342 0.006436 0.305067
v 0.014361 0.009211 0.289033
v 0.014342 0.009249 0.289033
v 0.014329 0.009289 0.289034
v 0.014325 0.009331 0.289034
v 0.014329 0.006464 0.305095
v 0.014325 0.006493 0.305125
v 0.014329 0.006523 0.305155
v 0.014342 0.006551 0.305184
v 0.014329 0.009373 0.289034
v 0.014342 0.009413 0.289035
v 0.014361 0.009450 0.289035
v 0.014388 0.009483 0.289036
v 0.014361 0.006577 0.305211
v 0.014388 0.006600 0.305234
v 0.014421 0.006618 0.305253
v 0.014458 0.006632 0.305267
v 0.014421 0.009510 0.289036
v 0.014458 0.009530 0.289036
v 0.014498 0.009542 0.289036
v 0.014498 0.006641 0.305276
v 0.014540 0.006644 0.305279
v 0.014386 0.009496 0.287650
v 0.014323 0.009344 0.287649
v 0.014657 0.009523 0.287651
vn 0.1916 0.9815 0.0055
vn 0.3828 0.9238 0.0062
vn 0.5556 0.8314 0.0049
vn 0.3789 0.9254 0.0058
vn 0.7071 0.7072 0.0034
vn 0.5583 0.8297 0.0030
vn 0.8315 0.5555 0.0018
vn 0.7086 0.7056 0.0016
vn 0.8162 0.5751 0.0546
vn 0.9150 0.4015 0.0387
vn 0.6877 0.7228 0.0684
vn 0.7834 0.6120 0.1087
vn 0.8920 0.4450 0.0789
vn 0.6496 0.7485 0.1333
vn 0.5352 0.8410 0.0789
vn 0.4988 0.8533 0.1521
vn 0.3659 0.9266 0.0862
vn 0.3380 0.9265 0.1654
vn 0.1857 0.9784 0.0911
vn 0.1691 0.9702 0.1733
vn 0.1949 0.9808 0.0072
vn -0.0000 1.0000 0.0080
vn -0.0000 0.9957 0.0925
vn -0.0000 0.9844 0.1759
vn -0.1946 0.9809 0.0084
vn -0.3807 0.9247 0.0069
vn -0.1950 0.9808 0.0090
vn -0.0019 1.0000 0.0080
vn -0.5540 0.8325 0.0094
vn -0.3824 0.9240 0.0086
vn -0.7029 0.7112 0.0079
vn -0.5555 0.8315 0.0084
vn -0.8329 0.5534 0.0084
vn -0.7073 0.7069 0.0078
vn -0.9246 0.3810 0.0062
vn -0.8313 0.5557 0.0071
vn -0.9797 0.2005 0.0092
vn -0.9239 0.3826 0.0060
vn -1.0000 -0.0003 0.0068
vn -0.9807 0.1953 0.0047
vn -0.9785 -0.2058 0.0084
vn -1.0000 -0.0000 0.0032
vn -0.9248 -0.3804 0.0020
vn -0.9808 -0.1949 0.0016
vn -0.8354 -0.5496 0.0085
vn -0.9239 -0.3827 -0.0001
vn -0.7045 -0.7097 -0.0014
vn -0.8315 -0.5555 -0.0018
vn -0.5496 -0.8354 0.0002
vn -0.7064 -0.7078 -0.0035
vn -0.3819 -0.9242 -0.0039
vn -0.5556 -0.8315 -0.0049
vn -0.1945 -0.9809 -0.0050
vn -0.3827 -0.9239 -0.0062
vn 0.8321 0.5546 -0.0000
vn 0.9238 0.3829 0.0001
vn 0.9808 0.1951 -0.0016
vn 0.9231 0.3847 0.0018
vn 0.9777 0.2089 0.0198
vn 1.0000 0.0051 0.0002
vn 0.9667 0.2522 0.0446
vn 0.9991 0.0423 0.0075
vn 0.9846 -0.1722 -0.0303
vn 0.9799 -0.1983 -0.0195
vn 0.9237 -0.3774 -0.0662
vn 0.9189 -0.3926 -0.0380
vn 1.0000 0.0002 -0.0032
vn 0.9808 -0.1950 -0.0047
vn 0.9820 0.1886 0.0019
vn 1.0000 0.0001 0.0007
vn 0.9238 -0.3828 -0.0059
vn 0.9814 -0.1919 0.0014
vn 0.8211 -0.5682 -0.0543
vn 0.8315 -0.5554 -0.0071
vn 0.9236 -0.3834 -0.0058
vn 0.6923 -0.7184 -0.0679
vn 0.8221 -0.5609 -0.0982
vn 0.6882 -0.7147 -0.1249
vn 0.5321 -0.8341 -0.1455
vn 0.5394 -0.8384 -0.0784
vn 0.3615 -0.9185 -0.1600
vn 0.3691 -0.9254 -0.0860
vn 0.7073 -0.7069 -0.0081
vn 0.5556 -0.8314 -0.0084
vn 0.8287 -0.5597 -0.0046
vn 0.7126 -0.7016 -0.0069
vn 0.5546 -0.8321 -0.0044
vn 0.3829 -0.9238 -0.0086
vn 0.1951 -0.9808 -0.0085
vn 0.3814 -0.9244 -0.0048
vn 0.1873 -0.9782 -0.0900
vn -0.0000 -0.9958 -0.0912
vn 0.1827 -0.9686 -0.1686
vn -0.0000 -0.9852 -0.1714
vn -0.1827 -0.9686 -0.1686
vn -0.1866 -0.9783 -0.0898
vn -0.3616 -0.9185 -0.1600
vn -0.3690 -0.9255 -0.0851
vn -0.0001 -1.0000 -0.0080
vn -0.1951 -0.9807 -0.0072
vn 0.1929 -0.9812 -0.0065
vn -0.0063 -1.0000 -0.0057
vn -0.5394 -0.8386 -0.0769
vn -0.6923 -0.7185 -0.0667
vn -0.5321 -0.8341 -0.1455
vn -0.6885 -0.7144 -0.1248
vn -0.8221 -0.5609 -0.0982
vn -0.8211 -0.5683 -0.0529
vn -0.9237 -0.3774 -0.0662
vn -0.9192 -0.3921 -0.0361
vn -0.9846 -0.1722 -0.0303
vn -0.9800 -0.1983 -0.0178
vn -0.9991 0.0423 0.0075
vn -1.0000 0.0051 0.0017
vn -0.9667 0.2522 0.0446
vn -0.9777 0.2089 0.0214
vn -0.8920 0.4450 0.0789
vn -0.9149 0.4016 0.0399
vn -0.7834 0.6119 0.1087
vn -0.8162 0.5751 0.0560
vn -0.6496 0.7485 0.1333
vn -0.6872 0.7231 0.0695
vn -0.4987 0.8533 0.1521
vn -0.5347 0.8413 0.0799
vn -0.3375 0.9267 0.1654
vn -0.3662 0.9264 0.0870
vn -0.1702 0.9701 0.1733
vn -0.1855 0.9784 0.0914
vt 0.000000 0.000000
vt 0.000000 0.000000
vt 0.000000 0.000000
vt 0.000000 0.000000
vt 0.000000 0.000000
vt 0.000000 0.000000
vt 0.000000 0.000000
vt 0.000000 0.000000
vt 0.000000 0.000000
vt 0.000000 0.000000
vt 0.000000 0.000000
vt 0.000000 0.000000
vt 0.000000 0.000000
vt 0.000000 0.000000
vt 0.000000 0.000000
vt 0.000000 0.000000
vt 0.000000 0.000000
vt 0.000000 0.000000
vt 0.000000 0.000000
vt 0.000000 0.000000
vt 0.000000 0.000000
vt 0.000000 0.000000
vt 0.000000 0.000000
vt 0.000000 0.000000
vt 0.000000 0.000000
vt 0.000000 0.000000
vt 0.000000 0.000000
vt 0.000000 0.000000
vt 0.000000 0.000000
vt 0.000000 0.000000
vt 0.000000 0.000000
vt 0.000000 0.000000
vt 0.000000 0.000000
vt 0.000000 0.000000
vt 0.000000 0.000000
vt 0.000000 0.000000
vt 0.000000 0.000000
vt 0.000000 0.000000
vt 0.000000 0.000000
vt 0.000000 0.000000
vt 0.000000 0.000000
vt 0.000000 0.000000
vt 0.000000 0.000000
vt 0.000000 0.000000
vt 0.000000 0.000000
vt 0.000000 0.000000
vt 0.000000 0.000000
vt 0.000000 0.000000
vt 0.000000 0.000000
vt 0.000000 0.000000
vt 0.000000 0.000000
vt 0.000000 0.000000
vt 0.000000 0.000000
vt 0.000000 0.000000
vt 0.000000 0.000000
vt 0.000000 0.000000
vt 0.000000 0.000000
vt 0.000000 0.000000
vt 0.000000 0.000000
vt 0.000000 0.000000
vt 0.000000 0.000000
vt 0.000000 0.000000
vt 0.000000 0.000000
vt 0.000000 0.000000
vt 0.000000 0.000000
vt 0.000000 0.000000
vt 0.000000 0.000000
vt 0.000000 0.000000
vt 0.000000 0.000000
vt 0.000000 0.000000
vt 0.000000 0.000000
vt 0.000000 0.000000
vt 0.000000 0.000000
vt 0.000000 0.000000
vt 0.000000 0.000000
vt 0.000000 0.000000
vt 0.000000 0.000000
vt 0.000000 0.000000
vt 0.000000 0.000000
vt 0.000000 0.000000
vt 0.000000 0.000000
vt 0.000000 0.000000
vt 0.000000 0.000000
vt 0.000000 0.000000
vt 0.000000 0.000000
vt 0.000000 0.000000
vt 0.000000 0.000000
vt 0.000000 0.000000
vt 0.000000 0.000000
vt 0.000000 0.000000
vt 0.000000 0.000000
vt 0.000000 0.000000
vt 0.000000 0.000000
vt 0.000000 0.000000
vt 0.000000 0.000000
vt 0.000000 0.000000
vt 0.000000 0.000000
vt 0.000000 0.000000
vt 0.000000 0.000000
vt 0.000000 0.000000
vt 0.000000 0.000000
vt 0.000000 0.000000
vt 0.000000 0.000000
vt 0.000000 0.000000
vt 0.000000 0.000000
vt 0.000000 0.000000
vt 0.000000 0.000000
vt 0.000000 0.000000
vt 0.000000 0.000000
vt 0.000000 0.000000
vt 0.000000 0.000000
vt 0.000000 0.000000
vt 0.000000 0.000000
vt 0.000000 0.000000
vt 0.000000 0.000000
vt 0.000000 0.000000
vt 0.000000 0.000000
vt 0.000000 0.000000
vt 0.000000 0.000000
vt 0.000000 0.000000
vt 0.000000 0.000000
vt 0.000000 0.000000
vt 0.000000 0.000000
vt 0.000000 0.000000
vt 0.000000 0.000000
vt 0.000000 0.000000
vt 0.000000 0.000000
vt 0.000000 0.000000
s 1
usemtl corde_non_zigrinate
f 3/3/1 128/128/2 2/2/3 1/1/4
f 1/1/4 2/2/3 6/6/5 4/4/6
f 4/4/6 6/6/5 7/7/7 5/5/8
f 6/6/5 8/8/9 9/9/10 7/7/7
f 2/2/3 11/11/11 8/8/9 6/6/5
f 8/8/9 10/10/12 57/57/13 9/9/10
f 11/11/11 13/13/14 10/10/12 8/8/9
f 128/128/2 12/12/15 11/11/11 2/2/3
f 12/12/15 14/14/16 13/13/14 11/11/11
f 17/17/17 15/15/18 14/14/16 12/12/15
f 19/19/19 16/16/20 15/15/18 17/17/17
f 18/18/21 17/17/17 12/12/15 128/128/2
f 21/21/22 19/19/19 17/17/17 18/18/21
f 20/20/23 125/125/24 16/16/20 19/19/19
f 22/22/25 20/20/23 19/19/19 21/21/22
f 25/25/26 22/22/25 21/21/22 23/23/27
f 23/23/27 21/21/22 18/18/21 24/24/28
f 26/26/29 27/27/30 22/22/25 25/25/26
f 28/28/31 29/29/32 27/27/30 26/26/29
f 30/30/33 31/31/34 29/29/32 28/28/31
f 32/32/35 126/126/36 31/31/34 30/30/33
f 33/33/37 34/34/38 126/126/36 32/32/35
f 35/35/39 36/36/40 34/34/38 33/33/37
f 37/37/41 38/38/42 36/36/40 35/35/39
f 39/39/43 127/127/44 38/38/42 37/37/41
f 40/40/45 41/41/46 127/127/44 39/39/43
f 42/42/47 43/43/48 41/41/46 40/40/45
f 44/44/49 45/45/50 43/43/48 42/42/47
f 46/46/51 47/47/52 45/45/50 44/44/49
f 48/48/53 98/98/54 47/47/52 46/46/51
f 49/49/55 51/51/56 52/52/57 50/50/58
f 5/5/8 7/7/7 51/51/56 49/49/55
f 51/51/56 53/53/59 54/54/60 52/52/57
f 7/7/7 9/9/10 53/53/59 51/51/56
f 53/53/59 55/55/61 56/56/62 54/54/60
f 9/9/10 57/57/13 55/55/61 53/53/59
f 54/54/60 56/56/62 58/58/63 60/60/64
f 60/60/64 58/58/63 59/59/65 61/61/66
f 62/62/67 60/60/64 61/61/66 64/64/68
f 52/52/57 54/54/60 60/60/64 62/62/67
f 63/63/69 62/62/67 64/64/68 65/65/70
f 50/50/58 52/52/57 62/62/67 63/63/69
f 65/65/70 64/64/68 66/66/71 67/67/72
f 64/64/68 61/61/66 69/69/73 66/66/71
f 67/67/72 66/66/71 68/68/74 81/81/75
f 66/66/71 69/69/73 70/70/76 68/68/74
f 69/69/73 71/71/77 72/72/78 70/70/76
f 61/61/66 59/59/65 71/71/77 69/69/73
f 70/70/76 72/72/78 73/73/79 75/75/80
f 75/75/80 73/73/79 74/74/81 76/76/82
f 77/77/83 75/75/80 76/76/82 78/78/84
f 68/68/74 70/70/76 75/75/80 77/77/83
f 79/79/85 77/77/83 78/78/84 80/80/86
f 81/81/75 68/68/74 77/77/83 79/79/85
f 82/82/87 84/84/88 85/85/89 83/83/90
f 80/80/86 78/78/84 84/84/88 82/82/87
f 84/84/88 86/86/91 87/87/92 85/85/89
f 78/78/84 76/76/82 86/86/91 84/84/88
f 86/86/91 88/88/93 89/89/94 87/87/92
f 76/76/82 74/74/81 88/88/93 86/86/91
f 87/87/92 89/89/94 90/90/95 92/92/96
f 92/92/96 90/90/95 91/91/97 93/93/98
f 94/94/99 92/92/96 93/93/98 96/96/100
f 85/85/89 87/87/92 92/92/96 94/94/99
f 95/95/101 94/94/99 96/96/100 97/97/102
f 83/83/90 85/85/89 94/94/99 95/95/101
f 97/97/102 96/96/100 98/98/54 48/48/53
f 96/96/100 93/93/98 99/99/103 98/98/54
f 98/98/54 99/99/103 100/100/104 47/47/52
f 99/99/103 101/101/105 102/102/106 100/100/104
f 93/93/98 91/91/97 101/101/105 99/99/103
f 100/100/104 102/102/106 103/103/107 105/105/108
f 105/105/108 103/103/107 104/104/109 106/106/110
f 45/45/50 105/105/108 106/106/110 43/43/48
f 47/47/52 100/100/104 105/105/108 45/45/50
f 106/106/110 104/104/109 109/109/111 107/107/112
f 43/43/48 106/106/110 107/107/112 41/41/46
f 107/107/112 109/109/111 110/110/113 108/108/114
f 41/41/46 107/107/112 108/108/114 127/127/44
f 108/108/114 110/110/113 111/111/115 113/113/116
f 113/113/116 111/111/115 112/112/117 114/114/118
f 38/38/42 113/113/116 114/114/118 36/36/40
f 127/127/44 108/108/114 113/113/116 38/38/42
f 114/114/118 112/112/117 117/117/119 115/115/120
f 36/36/40 114/114/118 115/115/120 34/34/38
f 115/115/120 117/117/119 118/118/121 116/116/122
f 34/34/38 115/115/120 116/116/122 126/126/36
f 116/116/122 118/118/121 119/119/123 121/121/124
f 121/121/124 119/119/123 120/120/125 122/122/126
f 31/31/34 121/121/124 122/122/126 29/29/32
f 126/126/36 116/116/122 121/121/124 31/31/34
f 122/122/126 120/120/125 124/124/127 123/123/128
f 29/29/32 122/122/126 123/123/128 27/27/30
f 123/123/128 124/124/127 125/125/24 20/20/23
f 27/27/30 123/123/128 20/20/23 22/22/25
f 24/24/28 18/18/21 128/128/2 3/3/1
