# Blender 3.4.1
# www.blender.org
mtllib cordas_005.mtl
o cordas.005
v -0.019596 0.013431 -0.360458
v -0.019488 0.013342 -0.360459
v -0.019719 0.013496 -0.360457
v -0.024005 0.009963 0.291519
v -0.023897 0.009875 0.291518
v -0.024017 0.009956 0.292883
v -0.024128 0.010029 0.291519
v -0.024140 0.010022 0.292884
v -0.024261 0.010069 0.291520
v -0.024400 0.010083 0.291520
v -0.019852 0.013537 -0.360457
v -0.024274 0.010062 0.292884
v -0.024412 0.010076 0.292884
v -0.024274 0.006940 0.305264
v -0.024412 0.006949 0.305274
v -0.024140 0.006911 0.305235
v -0.024017 0.006865 0.305188
v -0.023910 0.006803 0.305125
v -0.023909 0.009868 0.292882
v -0.023821 0.006728 0.305048
v -0.023821 0.009760 0.292881
v -0.023755 0.006642 0.304960
v -0.023755 0.009637 0.292880
v -0.023715 0.006548 0.304865
v -0.023715 0.009503 0.292879
v -0.019293 0.012978 -0.360462
v -0.019334 0.013111 -0.360461
v -0.023703 0.009511 0.291514
v -0.023743 0.009644 0.291515
v -0.023809 0.009767 0.291516
v -0.019399 0.013234 -0.360460
v -0.024795 0.008781 0.291511
v -0.024903 0.008869 0.291512
v -0.024807 0.008773 0.292872
v -0.024808 0.006037 0.304344
v -0.024915 0.006099 0.304407
v -0.025004 0.006174 0.304484
v -0.024915 0.008862 0.292873
v -0.025004 0.008970 0.292874
v -0.025069 0.009093 0.292875
v -0.024991 0.008977 0.291513
v -0.025057 0.009100 0.291514
v -0.020582 0.012444 -0.360463
v -0.020648 0.012567 -0.360462
v -0.020688 0.012700 -0.360461
v -0.020702 0.012839 -0.360460
v -0.025098 0.009233 0.291516
v -0.025111 0.009372 0.291517
v -0.025110 0.009226 0.292876
v -0.025124 0.009365 0.292878
v -0.025110 0.006354 0.304667
v -0.025070 0.006261 0.304572
v -0.025124 0.006451 0.304766
v -0.025110 0.006548 0.304865
v -0.025070 0.006642 0.304960
v -0.025110 0.009503 0.292879
v -0.025069 0.009637 0.292880
v -0.025098 0.009511 0.291518
v -0.025057 0.009644 0.291519
v -0.020688 0.012978 -0.360459
v -0.020648 0.013111 -0.360458
v -0.020386 0.013431 -0.360456
v -0.020263 0.013496 -0.360456
v -0.020494 0.013342 -0.360456
v -0.024795 0.009963 0.291521
v -0.024672 0.010029 0.291521
v -0.024903 0.009875 0.291520
v -0.024807 0.009956 0.292883
v -0.024684 0.010022 0.292884
v -0.024915 0.009868 0.292882
v -0.024808 0.006865 0.305188
v -0.024915 0.006803 0.305125
v -0.024685 0.006911 0.305235
v -0.024551 0.006940 0.305264
v -0.024551 0.010062 0.292884
v -0.024539 0.010069 0.291521
v -0.020130 0.013537 -0.360456
v -0.019991 0.013550 -0.360456
v -0.025004 0.006728 0.305048
v -0.025004 0.009760 0.292881
v -0.024991 0.009767 0.291520
v -0.020582 0.013234 -0.360457
v -0.023715 0.006548 0.304865
v -0.023715 0.009503 0.292879
v -0.023701 0.006451 0.304766
v -0.023715 0.006354 0.304667
v -0.023701 0.009365 0.292878
v -0.023689 0.009372 0.291513
v -0.023715 0.009226 0.292876
v -0.023755 0.009093 0.292875
v -0.023703 0.009233 0.291512
v -0.023743 0.009100 0.291511
v -0.019293 0.012700 -0.360465
v -0.019334 0.012567 -0.360466
v -0.019280 0.012839 -0.360464
v -0.019293 0.012978 -0.360462
v -0.023703 0.009511 0.291514
v -0.019399 0.012444 -0.360466
v -0.019488 0.012336 -0.360467
v -0.023809 0.008977 0.291510
v -0.023897 0.008869 0.291510
v -0.023821 0.008970 0.292874
v -0.023909 0.008862 0.292873
v -0.023821 0.006174 0.304484
v -0.023755 0.006261 0.304572
v -0.023910 0.006099 0.304407
v -0.024017 0.006037 0.304344
v -0.024017 0.008773 0.292872
v -0.024140 0.005991 0.304297
v -0.024140 0.008708 0.292872
v -0.024274 0.005963 0.304268
v -0.024412 0.005953 0.304258
v -0.024274 0.008667 0.292871
v -0.024412 0.008654 0.292871
v -0.024261 0.008674 0.291509
v -0.024400 0.008661 0.291509
v -0.019852 0.012142 -0.360468
v -0.024128 0.008715 0.291509
v -0.024005 0.008781 0.291509
v -0.019719 0.012182 -0.360468
v -0.019596 0.012248 -0.360467
v -0.019991 0.012128 -0.360467
v -0.020130 0.012142 -0.360467
v -0.020386 0.012248 -0.360465
v -0.020494 0.012336 -0.360464
v -0.020263 0.012182 -0.360466
v -0.024795 0.008781 0.291511
v -0.024903 0.008869 0.291512
v -0.024807 0.008773 0.292872
v -0.024672 0.008715 0.291510
v -0.024684 0.008708 0.292872
v -0.024539 0.008674 0.291510
v -0.024551 0.008667 0.292871
v -0.024551 0.005963 0.304268
v -0.024685 0.005991 0.304297
v -0.024808 0.006037 0.304344
v -0.024991 0.008977 0.291513
v -0.020582 0.012444 -0.360463
vn 0.5557 0.8313 0.0082
vn 0.5556 0.8314 0.0088
vn 0.7072 0.7070 0.0092
vn 0.7075 0.7067 0.0085
vn 0.3829 0.9238 0.0075
vn 0.3830 0.9237 0.0080
vn 0.5376 0.8361 0.1089
vn 0.6895 0.7180 0.0953
vn 0.3677 0.9224 0.1187
vn 0.1952 0.9807 0.0067
vn 0.1863 0.9747 0.1238
vn 0.1951 0.9808 0.0069
vn 0.0002 1.0000 0.0052
vn -0.0000 0.9922 0.1249
vn 0.0007 1.0000 0.0053
vn 0.0003 0.9696 0.2446
vn 0.1725 0.9551 0.2409
vn 0.3428 0.9109 0.2294
vn 0.5057 0.8367 0.2102
vn 0.6565 0.7317 0.1833
vn 0.7895 0.5955 0.1485
vn 0.8175 0.5707 0.0777
vn 0.8963 0.4305 0.1069
vn 0.9154 0.3986 0.0564
vn 0.9497 0.3038 0.0755
vn 0.9544 0.2951 0.0445
vn 0.9241 0.3821 0.0083
vn 0.9240 0.3824 0.0093
vn 0.9573 0.2891 0.0090
vn 0.9566 0.2912 0.0080
vn 0.8318 0.5551 0.0094
vn 0.8327 0.5536 0.0093
vn -0.6338 -0.7734 -0.0099
vn -0.6193 -0.7785 -0.1017
vn -0.6967 -0.7115 -0.0910
vn -0.7067 -0.7075 -0.0102
vn -0.6011 -0.7772 -0.1863
vn -0.6911 -0.7028 -0.1684
vn -0.8236 -0.5514 -0.1328
vn -0.8247 -0.5608 -0.0736
vn -0.8488 -0.5286 -0.0098
vn -0.9240 -0.3716 -0.0900
vn -0.9208 -0.3864 -0.0523
vn -0.9239 -0.3825 -0.0093
vn -0.8812 -0.4727 -0.0085
vn -0.9233 -0.3841 -0.0071
vn -0.9808 -0.1951 -0.0077
vn -0.9808 -0.1949 -0.0088
vn -1.0000 0.0001 -0.0080
vn -1.0000 -0.0001 -0.0068
vn -0.9807 -0.1935 -0.0284
vn -1.0000 0.0082 -0.0026
vn -0.9842 -0.1721 -0.0419
vn -0.9993 0.0369 0.0091
vn -0.9685 0.2417 0.0597
vn -0.9779 0.2080 0.0234
vn -0.8964 0.4303 0.1068
vn -0.9159 0.3986 0.0479
vn -0.9807 0.1952 -0.0067
vn -0.9240 0.3825 -0.0052
vn -0.9808 0.1949 -0.0056
vn -0.9235 0.3835 -0.0042
vn -0.5542 0.8324 0.0014
vn -0.5555 0.8315 -0.0000
vn -0.3823 0.9240 0.0019
vn -0.3817 0.9243 0.0027
vn -0.7079 0.7064 -0.0010
vn -0.7071 0.7071 -0.0019
vn -0.5382 0.8364 0.1040
vn -0.3688 0.9224 0.1153
vn -0.6901 0.7182 0.0891
vn -0.5063 0.8364 0.2101
vn -0.3429 0.9109 0.2294
vn -0.6563 0.7319 0.1833
vn -0.1726 0.9551 0.2408
vn -0.1871 0.9747 0.1220
vn -0.1949 0.9808 0.0036
vn -0.1945 0.9809 0.0039
vn -0.8181 0.5708 0.0702
vn -0.7894 0.5956 0.1485
vn -0.8318 0.5550 -0.0037
vn -0.8320 0.5548 -0.0027
vn 0.9945 0.1036 0.0172
vn 0.9939 0.1074 0.0243
vn 0.9993 0.0367 0.0091
vn 0.9999 0.0082 0.0064
vn 0.9842 -0.1721 -0.0419
vn 0.9808 -0.1939 -0.0196
vn 1.0000 -0.0000 0.0078
vn 0.9808 -0.1950 0.0066
vn 0.9951 0.0985 0.0083
vn 0.9241 -0.3714 -0.0899
vn 0.9212 -0.3866 -0.0441
vn 0.9240 -0.3824 0.0052
vn 0.9808 -0.1950 0.0056
vn 0.9240 -0.3823 0.0042
vn 1.0000 -0.0010 0.0074
vn 0.9953 0.0966 0.0072
vn 0.8317 -0.5553 0.0028
vn 0.8316 -0.5554 0.0036
vn 0.7071 -0.7071 0.0017
vn 0.7068 -0.7074 0.0017
vn 0.8246 -0.5618 -0.0662
vn 0.6968 -0.7123 -0.0847
vn 0.8237 -0.5512 -0.1327
vn 0.6910 -0.7029 -0.1684
vn 0.5360 -0.8212 -0.1960
vn 0.5437 -0.8333 -0.0994
vn 0.3644 -0.9060 -0.2155
vn 0.3720 -0.9216 -0.1104
vn 0.1842 -0.9563 -0.2270
vn 0.1886 -0.9751 -0.1166
vn 0.0003 -0.9730 -0.2308
vn -0.0000 -0.9928 -0.1196
vn 0.1948 -0.9808 -0.0036
vn 0.0001 -1.0000 -0.0052
vn 0.3828 -0.9238 -0.0019
vn 0.1956 -0.9807 -0.0039
vn 0.0006 -1.0000 -0.0053
vn 0.3848 -0.9230 -0.0016
vn 0.5559 -0.8313 -0.0000
vn 0.5541 -0.8324 0.0002
vn -0.5543 -0.8323 -0.0082
vn -0.5272 -0.8497 -0.0085
vn -0.7075 -0.7067 -0.0085
vn -0.7065 -0.7077 -0.0082
vn -0.3830 -0.9237 -0.0072
vn -0.3829 -0.9238 -0.0079
vn -0.3726 -0.9211 -0.1132
vn -0.4555 -0.8839 -0.1060
vn -0.1944 -0.9809 -0.0065
vn -0.1949 -0.9808 -0.0066
vn -0.1894 -0.9747 -0.1183
vn -0.1844 -0.9563 -0.2270
vn -0.3643 -0.9060 -0.2155
vn -0.4346 -0.8761 -0.2086
vn -0.7752 -0.6316 -0.0094
vn -0.7752 -0.6316 -0.0086
vt 2.834274 0.028281
vt 2.834274 0.027453
vt 2.834274 0.029101
vt 0.114058 0.027798
vt 0.114058 0.026997
vt 0.107906 0.028146
vt 0.114058 0.028601
vt 0.107906 0.028908
vt 0.114058 0.029403
vt 0.114058 0.030206
vt 2.834274 0.029909
vt 0.107906 0.029671
vt 0.107906 0.030437
vt 0.052846 0.030263
vt 0.052846 0.031118
vt 0.052846 0.029394
vt 0.052846 0.028515
vt 0.052846 0.027630
vt 0.107906 0.027385
vt 0.052846 0.026741
vt 0.107906 0.026624
vt 0.052846 0.025853
vt 0.107906 0.025864
vt 0.052846 0.024970
vt 0.107906 0.025104
vt 2.834274 0.024929
vt 2.834274 0.025775
vt 0.114058 0.024594
vt 0.114058 0.025395
vt 0.114058 0.026195
vt 2.834274 0.026617
vt 0.114058 0.040642
vt 0.114058 0.039839
vt 0.107906 0.040581
vt 0.052846 0.040620
vt 0.052846 0.039935
vt 0.052846 0.039257
vt 0.107906 0.039797
vt 0.107906 0.039011
vt 0.107906 0.038224
vt 0.114058 0.039036
vt 0.114058 0.038234
vt 2.834274 0.039082
vt 2.834274 0.038324
vt 2.834274 0.037567
vt 2.834274 0.036810
vt 0.114058 0.037431
vt 0.114058 0.036629
vt 0.107906 0.037436
vt 0.107906 0.036649
vt 0.052846 0.037908
vt 0.052846 0.038582
vt 0.052846 0.037228
vt 0.052846 0.036536
vt 0.052846 0.035828
vt 0.107906 0.035863
vt 0.107906 0.035077
vt 0.114058 0.035827
vt 0.114058 0.035024
vt 2.834274 0.036056
vt 2.834274 0.035305
vt 2.834274 0.033035
vt 2.834274 0.032268
vt 2.834274 0.033795
vt 0.114058 0.032615
vt 0.114058 0.031812
vt 0.114058 0.033419
vt 0.107906 0.032745
vt 0.107906 0.031974
vt 0.107906 0.033520
vt 0.052846 0.033573
vt 0.052846 0.034348
vt 0.052846 0.032775
vt 0.052846 0.031956
vt 0.107906 0.031204
vt 0.114058 0.031009
vt 2.834274 0.031493
vt 2.834274 0.030707
vt 0.052846 0.035100
vt 0.107906 0.034297
vt 0.114058 0.034222
vt 2.834274 0.034551
vt 0.052846 0.024970
vt 0.107906 0.025104
vt 0.052846 0.024096
vt 0.052846 0.023236
vt 0.107906 0.024344
vt 0.114058 0.023794
vt 0.107906 0.023584
vt 0.107906 0.022822
vt 0.114058 0.022996
vt 0.114058 0.022200
vt 2.834274 0.023231
vt 2.834274 0.022381
vt 2.834274 0.024081
vt 2.834274 0.024929
vt 0.114058 0.024594
vt 2.834274 0.021536
vt 2.834274 0.020695
vt 0.114058 0.021402
vt 0.114058 0.020605
vt 0.107906 0.022062
vt 0.107906 0.021300
vt 0.052846 0.021567
vt 0.052846 0.022392
vt 0.052846 0.020762
vt 0.052846 0.019976
vt 0.107906 0.020537
vt 0.052846 0.019209
vt 0.107906 0.019773
vt 0.052846 0.018458
vt 0.052846 0.017723
vt 0.052846 0.042739
vt 0.107906 0.019008
vt 0.107906 0.018242
vt 0.107906 0.042916
vt 0.114058 0.018209
vt 0.114058 0.017402
vt 0.114058 0.043063
vt 2.834274 0.018221
vt 0.114058 0.019009
vt 0.114058 0.019808
vt 2.834274 0.019036
vt 2.834274 0.019861
vt 2.834274 0.017416
vt 2.834274 0.042959
vt 2.834274 0.042165
vt 2.834274 0.040608
vt 2.834274 0.039842
vt 2.834274 0.041382
vt 0.114058 0.040642
vt 0.114058 0.039839
vt 0.107906 0.040581
vt 0.114058 0.041446
vt 0.107906 0.041362
vt 0.114058 0.042252
vt 0.107906 0.042141
vt 0.052846 0.042020
vt 0.052846 0.041314
vt 0.052846 0.040620
vt 0.114058 0.039036
vt 2.834274 0.039082
s 1
usemtl corde_zigrinate
f 1/1/1 4/4/2 5/5/3 2/2/4
f 3/3/5 7/7/6 4/4/2 1/1/1
f 4/4/2 6/6/7 19/19/8 5/5/3
f 7/7/6 8/8/9 6/6/7 4/4/2
f 9/9/10 12/12/11 8/8/9 7/7/6
f 11/11/12 9/9/10 7/7/6 3/3/5
f 10/10/13 13/13/14 12/12/11 9/9/10
f 78/78/15 10/10/13 9/9/10 11/11/12
f 13/13/14 15/15/16 14/14/17 12/12/11
f 12/12/11 14/14/17 16/16/18 8/8/9
f 8/8/9 16/16/18 17/17/19 6/6/7
f 6/6/7 17/17/19 18/18/20 19/19/8
f 19/19/8 18/18/20 20/20/21 21/21/22
f 21/21/22 20/20/21 22/22/23 23/23/24
f 23/23/24 22/22/23 24/24/25 25/25/26
f 27/27/27 29/29/28 28/28/29 26/26/30
f 29/29/28 23/23/24 25/25/26 28/28/29
f 30/30/31 21/21/22 23/23/24 29/29/28
f 31/31/32 30/30/31 29/29/28 27/27/27
f 5/5/3 19/19/8 21/21/22 30/30/31
f 2/2/4 5/5/3 30/30/31 31/31/32
f 32/32/33 34/34/34 38/38/35 33/33/36
f 34/34/34 35/35/37 36/36/38 38/38/35
f 38/38/35 36/36/38 37/37/39 39/39/40
f 33/33/36 38/38/35 39/39/40 41/41/41
f 39/39/40 37/37/39 52/52/42 40/40/43
f 41/41/41 39/39/40 40/40/43 42/42/44
f 43/43/45 41/41/41 42/42/44 44/44/46
f 45/45/47 47/47/48 48/48/49 46/46/50
f 44/44/46 42/42/44 47/47/48 45/45/47
f 47/47/48 49/49/51 50/50/52 48/48/49
f 42/42/44 40/40/43 49/49/51 47/47/48
f 49/49/51 51/51/53 53/53/54 50/50/52
f 40/40/43 52/52/42 51/51/53 49/49/51
f 50/50/52 53/53/54 54/54/55 56/56/56
f 56/56/56 54/54/55 55/55/57 57/57/58
f 58/58/59 56/56/56 57/57/58 59/59/60
f 48/48/49 50/50/52 56/56/56 58/58/59
f 60/60/61 58/58/59 59/59/60 61/61/62
f 46/46/50 48/48/49 58/58/59 60/60/61
f 62/62/63 65/65/64 66/66/65 63/63/66
f 64/64/67 67/67/68 65/65/64 62/62/63
f 65/65/64 68/68/69 69/69/70 66/66/65
f 67/67/68 70/70/71 68/68/69 65/65/64
f 68/68/69 71/71/72 73/73/73 69/69/70
f 70/70/71 72/72/74 71/71/72 68/68/69
f 69/69/70 73/73/73 74/74/75 75/75/76
f 75/75/76 74/74/75 15/15/16 13/13/14
f 76/76/77 75/75/76 13/13/14 10/10/13
f 66/66/65 69/69/70 75/75/76 76/76/77
f 77/77/78 76/76/77 10/10/13 78/78/15
f 63/63/66 66/66/65 76/76/77 77/77/78
f 80/80/79 79/79/80 72/72/74 70/70/71
f 57/57/58 55/55/57 79/79/80 80/80/79
f 81/81/81 80/80/79 70/70/71 67/67/68
f 59/59/60 57/57/58 80/80/79 81/81/81
f 82/82/82 81/81/81 67/67/68 64/64/67
f 61/61/62 59/59/60 81/81/81 82/82/82
f 84/84/83 83/83/84 85/85/85 87/87/86
f 87/87/86 85/85/85 86/86/87 89/89/88
f 88/88/89 87/87/86 89/89/88 91/91/90
f 97/97/91 84/84/83 87/87/86 88/88/89
f 89/89/88 86/86/87 105/105/92 90/90/93
f 91/91/90 89/89/88 90/90/93 92/92/94
f 93/93/95 91/91/90 92/92/94 94/94/96
f 95/95/97 88/88/89 91/91/90 93/93/95
f 96/96/98 97/97/91 88/88/89 95/95/97
f 98/98/99 100/100/100 101/101/101 99/99/102
f 94/94/96 92/92/94 100/100/100 98/98/99
f 100/100/100 102/102/103 103/103/104 101/101/101
f 92/92/94 90/90/93 102/102/103 100/100/100
f 102/102/103 104/104/105 106/106/106 103/103/104
f 90/90/93 105/105/92 104/104/105 102/102/103
f 103/103/104 106/106/106 107/107/107 108/108/108
f 108/108/108 107/107/107 109/109/109 110/110/110
f 110/110/110 109/109/109 111/111/111 113/114/112
f 113/114/112 111/111/111 112/112/113 114/115/114
f 115/117/115 113/114/112 114/115/114 116/118/116
f 118/121/117 110/110/110 113/114/112 115/117/115
f 117/120/118 115/117/115 116/118/116 122/125/119
f 120/123/120 118/121/117 115/117/115 117/120/118
f 119/122/121 108/108/108 110/110/110 118/121/117
f 121/124/122 119/122/121 118/121/117 120/123/120
f 99/99/102 101/101/101 119/122/121 121/124/122
f 124/128/123 127/131/124 128/132/125 125/129/126
f 126/130/127 130/134/128 127/131/124 124/128/123
f 130/134/128 131/135/129 129/133/130 127/131/124
f 123/127/131 132/136/132 130/134/128 126/130/127
f 132/136/132 133/137/133 131/135/129 130/134/128
f 116/119/116 114/116/114 133/137/133 132/136/132
f 122/126/119 116/119/116 132/136/132 123/127/131
f 133/137/133 134/138/134 135/139/135 131/135/129
f 114/116/114 112/113/113 134/138/134 133/137/133
f 131/135/129 135/139/135 136/140/136 129/133/130
f 125/129/126 128/132/125 137/141/137 138/142/138
f 101/101/101 103/103/104 108/108/108 119/122/121
