# Blender 3.4.1
# www.blender.org
mtllib cordas_006.mtl
o cordas.006
v -0.004937 0.009829 0.289582
v -0.005024 0.009809 0.290967
v -0.004851 0.009809 0.290967
v -0.004937 0.006805 0.305300
v -0.005024 0.006799 0.305294
v -0.004851 0.006799 0.305294
v -0.004690 0.006753 0.305246
v -0.004767 0.009783 0.290966
v -0.004767 0.009795 0.289582
v -0.004690 0.009754 0.289581
v -0.003829 0.013336 -0.360452
v -0.004850 0.009820 0.289582
v -0.003912 0.013361 -0.360452
v -0.003999 0.013370 -0.360452
v -0.003752 0.013295 -0.360452
v -0.003629 0.013172 -0.360453
v -0.004567 0.009631 0.289580
v -0.004623 0.009687 0.290965
v -0.004568 0.009620 0.290965
v -0.004623 0.006714 0.305207
v -0.004568 0.006667 0.305159
v -0.004527 0.006613 0.305104
v -0.004526 0.009555 0.289580
v -0.004501 0.009471 0.289579
v -0.003588 0.013095 -0.360454
v -0.003563 0.013012 -0.360455
v -0.003588 0.012755 -0.360457
v -0.004493 0.009373 0.290963
v -0.004493 0.006494 0.304983
v -0.004501 0.006433 0.304921
v -0.004527 0.006375 0.304861
v -0.004623 0.006274 0.304758
v -0.004623 0.009059 0.290960
v -0.004526 0.009214 0.289576
v -0.004690 0.006235 0.304719
v -0.005184 0.006235 0.304719
v -0.005252 0.006274 0.304758
v -0.005184 0.009003 0.290959
v -0.005307 0.009137 0.289576
v -0.005348 0.006375 0.304861
v -0.005373 0.006433 0.304921
v -0.005382 0.006494 0.304983
v -0.005382 0.009373 0.290963
v -0.004410 0.013095 -0.360454
v -0.005348 0.009555 0.289580
v -0.005373 0.009460 0.290963
v -0.005348 0.006613 0.305104
v -0.005307 0.006667 0.305159
v -0.005252 0.006714 0.305207
v -0.005252 0.009687 0.290965
v -0.005307 0.009631 0.289580
v -0.004369 0.013172 -0.360453
v -0.004246 0.013295 -0.360452
v -0.004169 0.013336 -0.360452
v -0.005184 0.009754 0.289581
v -0.005107 0.009795 0.289582
v -0.005184 0.009742 0.290966
v -0.005107 0.009783 0.290966
v -0.005184 0.006753 0.305246
v -0.005024 0.009820 0.289582
v -0.004086 0.013361 -0.360452
v -0.004937 0.009817 0.290967
v -0.004937 0.009829 0.289582
v -0.005024 0.009809 0.290967
v -0.004851 0.009809 0.290967
v -0.004937 0.006805 0.305300
v -0.005024 0.006799 0.305294
v -0.004851 0.006799 0.305294
v -0.004767 0.006782 0.305276
v -0.004690 0.006753 0.305246
v -0.004767 0.009783 0.290966
v -0.004690 0.009742 0.290966
v -0.004767 0.009795 0.289582
v -0.004690 0.009754 0.289581
v -0.004850 0.009820 0.289582
v -0.003752 0.013295 -0.360452
v -0.003685 0.013239 -0.360453
v -0.003629 0.013172 -0.360453
v -0.004623 0.009699 0.289581
v -0.004567 0.009631 0.289580
v -0.004623 0.009687 0.290965
v -0.004568 0.009620 0.290965
v -0.004623 0.006714 0.305207
v -0.004568 0.006667 0.305159
v -0.004527 0.006613 0.305104
v -0.004501 0.006555 0.305044
v -0.004527 0.009543 0.290964
v -0.004501 0.009460 0.290963
v -0.004526 0.009555 0.289580
v -0.004501 0.009471 0.289579
v -0.003563 0.013012 -0.360455
v -0.003563 0.012838 -0.360457
v -0.003588 0.012755 -0.360457
v -0.004501 0.009298 0.289577
v -0.003554 0.012925 -0.360456
v -0.004492 0.009384 0.289578
v -0.004493 0.009373 0.290963
v -0.004493 0.006494 0.304983
v -0.004501 0.009286 0.290962
v -0.004527 0.009203 0.290961
v -0.004501 0.006433 0.304921
v -0.004527 0.006375 0.304861
v -0.004568 0.006321 0.304806
v -0.004623 0.006274 0.304758
v -0.004568 0.009126 0.290960
v -0.004623 0.009059 0.290960
v -0.004567 0.009137 0.289576
v -0.004623 0.009070 0.289575
v -0.003629 0.012678 -0.360458
v -0.004526 0.009214 0.289576
v -0.003685 0.012611 -0.360459
v -0.003752 0.012556 -0.360459
v -0.003829 0.012514 -0.360460
v -0.004690 0.009015 0.289574
v -0.004767 0.008974 0.289574
v -0.004690 0.009003 0.290959
v -0.004767 0.008962 0.290959
v -0.004690 0.006235 0.304719
v -0.004767 0.006206 0.304690
v -0.004851 0.006189 0.304672
v -0.004937 0.006183 0.304665
v -0.004851 0.008937 0.290958
v -0.004937 0.008928 0.290958
v -0.004850 0.008948 0.289574
v -0.004937 0.008940 0.289574
v -0.003912 0.012489 -0.360460
v -0.003999 0.012481 -0.360460
v -0.004086 0.012489 -0.360460
v -0.004169 0.012514 -0.360460
v -0.005024 0.008948 0.289574
v -0.005107 0.008974 0.289574
v -0.005024 0.008937 0.290958
v -0.005107 0.008962 0.290959
v -0.005024 0.006189 0.304672
v -0.005107 0.006206 0.304690
v -0.005184 0.006235 0.304719
v -0.005252 0.006274 0.304758
v -0.005184 0.009003 0.290959
v -0.005252 0.009059 0.290960
v -0.005184 0.009015 0.289574
v -0.005251 0.009070 0.289575
v -0.004246 0.012556 -0.360459
v -0.004313 0.012611 -0.360459
v -0.004369 0.012678 -0.360458
v -0.004410 0.012755 -0.360457
v -0.005307 0.009137 0.289576
v -0.005348 0.009214 0.289576
v -0.005307 0.009126 0.290960
v -0.005348 0.009203 0.290961
v -0.005307 0.006321 0.304806
v -0.005348 0.006375 0.304861
v -0.005373 0.006433 0.304921
v -0.005382 0.006494 0.304983
v -0.005373 0.009286 0.290962
v -0.005382 0.009373 0.290963
v -0.005373 0.009298 0.289577
v -0.005381 0.009384 0.289578
v -0.004435 0.012838 -0.360457
v -0.004443 0.012925 -0.360456
v -0.004435 0.013012 -0.360455
v -0.004410 0.013095 -0.360454
v -0.005373 0.009471 0.289579
v -0.005348 0.009555 0.289580
v -0.005373 0.009460 0.290963
v -0.005348 0.009543 0.290964
v -0.005373 0.006555 0.305044
v -0.005348 0.006613 0.305104
v -0.005307 0.006667 0.305159
v -0.005252 0.006714 0.305207
v -0.005307 0.009620 0.290965
v -0.005252 0.009687 0.290965
v -0.005307 0.009631 0.289580
v -0.005251 0.009699 0.289581
v -0.004369 0.013172 -0.360453
v -0.004313 0.013239 -0.360453
v -0.004246 0.013295 -0.360452
v -0.005184 0.009754 0.289581
v -0.005184 0.009742 0.290966
v -0.005107 0.009783 0.290966
v -0.005184 0.006753 0.305246
v -0.005107 0.006782 0.305276
v -0.005024 0.009820 0.289582
vn 0.2921 0.9563 0.0080
vn 0.3515 0.9362 0.0061
vn 0.2276 0.9737 0.0064
vn 0.2923 0.9563 0.0076
vn 0.3805 0.9248 0.0061
vn 0.4700 0.8826 0.0055
vn 0.4699 0.8827 0.0066
vn 0.1965 0.9805 0.0056
vn 0.0001 1.0000 0.0054
vn -0.0001 1.0000 0.0054
vn 0.7413 0.6569 0.1374
vn 0.7412 0.6575 0.1354
vn 0.7410 0.6574 0.1370
vn 0.9245 0.3811 0.0034
vn 0.9243 0.3816 0.0034
vn 0.9579 0.2871 0.0026
vn 0.9577 0.2877 0.0039
vn 0.8820 0.4713 0.0048
vn 0.8817 0.4718 0.0021
vn -0.8814 0.4724 0.0013
vn -0.8813 0.4726 0.0006
vn -0.8823 0.4707 0.0005
vn -0.8818 0.4717 0.0033
vn -0.4699 0.8827 0.0059
vn -0.4700 0.8826 0.0059
vn -0.3827 0.9239 0.0061
vn -0.3817 0.9243 0.0053
vn -0.3841 0.9233 0.0070
vn -0.4687 0.8834 0.0063
vn -0.5932 0.7876 0.1667
vn -0.5944 0.7876 0.1624
vn -0.5942 0.7872 0.1648
vn -0.5944 0.7869 0.1660
vn -0.2937 0.9559 0.0079
vn -0.2288 0.9735 0.0047
vn -0.1964 0.9805 0.0051
vn 0.0004 0.9943 0.1069
vn 0.0003 1.0000 0.0083
vn -0.0967 0.9953 0.0096
vn -0.1495 0.9791 0.1378
vn 0.1494 0.9791 0.1382
vn 0.0978 0.9952 0.0094
vn -0.1712 0.9642 0.2025
vn -0.0000 0.9786 0.2056
vn 0.1714 0.9642 0.2025
vn 0.3393 0.9207 0.1931
vn 0.3912 0.9110 0.1307
vn 0.5021 0.8464 0.1772
vn 0.5367 0.8388 0.0917
vn 0.5836 0.8120 0.0065
vn 0.4700 0.8826 0.0077
vn 0.6387 0.7694 0.0052
vn 0.7073 0.7069 0.0055
vn 0.7070 0.7072 0.0049
vn 0.8117 0.5840 0.0066
vn 0.7690 0.6392 0.0058
vn 0.8419 0.5384 0.0355
vn 0.6718 0.7382 0.0614
vn 0.5976 0.7848 0.1642
vn 0.8623 0.4958 0.1029
vn 0.8940 0.4387 0.0910
vn 0.9152 0.4004 0.0449
vn 0.9675 0.2475 0.0511
vn 0.9777 0.2088 0.0238
vn 0.9864 0.1644 0.0022
vn 0.9233 0.3842 0.0037
vn 0.9806 -0.1959 0.0025
vn 0.9808 -0.1951 -0.0005
vn 0.9239 -0.3826 -0.0019
vn 0.9246 -0.3810 -0.0003
vn 1.0000 -0.0014 0.0015
vn 1.0000 -0.0002 0.0009
vn 0.9948 0.1020 0.0029
vn 1.0000 0.0061 0.0015
vn 0.9802 -0.1968 -0.0209
vn 0.9992 0.0399 0.0082
vn 0.9845 -0.1720 -0.0352
vn 0.9239 -0.3749 -0.0763
vn 0.9199 -0.3899 -0.0419
vn 0.8229 -0.5569 -0.1129
vn 0.8225 -0.5655 -0.0601
vn 0.6897 -0.7098 -0.1433
vn 0.6943 -0.7157 -0.0761
vn 0.7069 -0.7073 -0.0043
vn 0.8315 -0.5555 -0.0031
vn 0.8285 -0.5600 -0.0006
vn 0.7018 -0.7124 -0.0027
vn 0.5547 -0.8320 -0.0034
vn 0.5558 -0.8313 -0.0053
vn 0.3828 -0.9238 -0.0061
vn 0.3843 -0.9232 -0.0033
vn 0.3706 -0.9238 -0.0967
vn 0.5414 -0.8361 -0.0882
vn 0.5340 -0.8289 -0.1668
vn 0.3629 -0.9136 -0.1834
vn 0.1830 -0.9639 -0.1932
vn 0.1879 -0.9769 -0.1014
vn 0.0006 -0.9805 -0.1964
vn 0.0004 -0.9946 -0.1035
vn 0.0001 -1.0000 -0.0069
vn 0.1948 -0.9808 -0.0066
vn 0.1928 -0.9812 -0.0039
vn 0.0002 -1.0000 -0.0050
vn -0.1940 -0.9810 -0.0056
vn -0.1951 -0.9808 -0.0069
vn -0.3828 -0.9238 -0.0067
vn -0.3837 -0.9235 -0.0037
vn -0.3705 -0.9238 -0.0967
vn -0.1879 -0.9769 -0.1019
vn -0.1833 -0.9639 -0.1932
vn -0.3628 -0.9137 -0.1834
vn -0.5339 -0.8289 -0.1668
vn -0.5410 -0.8364 -0.0881
vn -0.6899 -0.7096 -0.1433
vn -0.6944 -0.7155 -0.0762
vn -0.7071 -0.7071 -0.0055
vn -0.5559 -0.8313 -0.0062
vn -0.5578 -0.8300 -0.0045
vn -0.7040 -0.7102 0.0003
vn -0.8272 -0.5618 -0.0042
vn -0.8314 -0.5556 -0.0045
vn -0.9239 -0.3826 -0.0034
vn -0.9239 -0.3825 -0.0010
vn -0.9200 -0.3897 -0.0422
vn -0.8225 -0.5655 -0.0604
vn -0.8230 -0.5567 -0.1128
vn -0.9239 -0.3749 -0.0763
vn -0.9844 -0.1721 -0.0352
vn -0.9803 -0.1963 -0.0213
vn -0.9992 0.0399 0.0082
vn -1.0000 0.0065 0.0012
vn -1.0000 -0.0002 -0.0009
vn -0.9808 -0.1949 -0.0022
vn -0.9822 -0.1878 0.0003
vn -1.0000 -0.0006 -0.0014
vn -0.9825 0.1862 -0.0003
vn -0.9808 0.1952 0.0005
vn -0.9365 0.3508 0.0029
vn -0.9580 0.2868 0.0002
vn -0.9154 0.4001 0.0447
vn -0.9778 0.2081 0.0237
vn -0.9675 0.2475 0.0511
vn -0.8940 0.4388 0.0910
vn -0.7865 0.6046 0.1259
vn -0.8168 0.5734 0.0635
vn -0.7427 0.6554 0.1372
vn -0.7167 0.6958 0.0466
vn -0.7068 0.7074 0.0043
vn -0.8101 0.5862 0.0030
vn -0.7684 0.6400 0.0031
vn -0.7069 0.7073 0.0032
vn -0.6348 0.7726 0.0049
vn -0.6393 0.7690 0.0034
vn -0.6327 0.7743 0.0049
vn -0.4350 0.8810 0.1860
vn -0.4368 0.8807 0.1833
vn -0.3401 0.9204 0.1931
vn -0.3484 0.9172 0.1931
vt 0.105450 0.010023
vt 0.096610 0.010399
vt 0.096610 0.009495
vt 0.096610 0.009044
vt 0.105450 0.009099
vt 0.105450 0.008638
vt 4.196065 0.000570
vt 0.105450 0.009561
vt 4.196065 0.001019
vt 4.196065 0.001468
vt 4.196065 0.000121
vt 4.196065 -0.000778
vt 0.105450 0.007713
vt 0.096610 0.008144
vt 0.096610 0.007696
vt 0.003870 0.008421
vt 0.003870 0.007918
vt 0.105450 0.007250
vt 0.105450 0.006787
vt 4.196065 -0.001228
vt 4.196065 -0.001679
vt 4.196065 0.004192
vt 0.105450 0.012797
vt 0.003870 0.012316
vt 0.096610 0.011761
vt 0.105450 0.012335
vt 4.196065 0.003733
vt 4.196065 0.002822
vt 4.196065 0.002370
vt 0.105450 0.011410
vt 0.105450 0.010947
vt 0.096610 0.011307
vt 0.096610 0.010853
vt 0.003870 0.011857
vt 0.105450 0.010485
vt 4.196065 0.001919
vt 0.096610 0.009947
vt 0.105450 0.010023
vt 0.096610 0.010399
vt 0.096610 0.009495
vt 0.003870 0.010420
vt 0.003870 0.010907
vt 0.003870 0.009926
vt 0.003870 0.009427
vt 0.003870 0.008925
vt 0.096610 0.009044
vt 0.096610 0.008593
vt 0.105450 0.009099
vt 0.105450 0.008638
vt 0.105450 0.009561
vt 4.196065 0.000121
vt 4.196065 -0.000329
vt 4.196065 -0.000778
vt 0.105450 0.008175
vt 0.105450 0.007713
vt 0.096610 0.008144
vt 0.096610 0.007696
vt 0.003870 0.008421
vt 0.003870 0.007918
vt 0.003870 0.007418
vt 0.003870 0.006921
vt 0.096610 0.007249
vt 0.096610 0.006803
vt 0.105450 0.007250
vt 0.105450 0.006787
vt 4.196065 -0.001679
vt 4.196065 -0.002585
vt 4.196065 -0.003040
vt 0.105450 0.005862
vt 4.196065 -0.002132
vt 0.105450 0.006324
vt 0.096610 0.006357
vt 0.003870 0.006430
vt 0.096610 0.005913
vt 0.096610 0.005469
vt 0.003870 0.005947
vt 0.003870 0.005473
vt 0.003870 0.005008
vt 0.003870 0.004553
vt 0.096610 0.005027
vt 0.096610 0.004584
vt 0.105450 0.004938
vt 0.105450 0.004476
vt 4.196065 -0.003495
vt 0.105450 0.005399
vt 4.196065 -0.003953
vt 4.196065 -0.004412
vt 4.196065 -0.004873
vt 0.105450 0.004015
vt 0.105450 0.003554
vt 0.096610 0.004142
vt 0.096610 0.003699
vt 0.003870 0.004106
vt 0.003870 0.003668
vt 0.003870 0.003236
vt 0.003870 0.002811
vt 0.003870 0.017321
vt 0.096610 0.003257
vt 0.096610 0.002813
vt 0.096610 0.017171
vt 0.105450 0.003093
vt 0.105450 0.002629
vt 0.105450 0.017419
vt 4.196065 -0.005335
vt 4.196065 -0.005798
vt 4.196065 0.008851
vt 4.196065 0.008383
vt 4.196065 0.007916
vt 0.105450 0.016955
vt 0.105450 0.016492
vt 0.096610 0.016726
vt 0.096610 0.016281
vt 0.003870 0.016902
vt 0.003870 0.016488
vt 0.003870 0.016078
vt 0.003870 0.015671
vt 0.096610 0.015833
vt 0.096610 0.015385
vt 0.105450 0.016030
vt 0.105450 0.015568
vt 4.196065 0.007449
vt 4.196065 0.006982
vt 4.196065 0.006515
vt 4.196065 0.006048
vt 0.105450 0.015106
vt 0.105450 0.014645
vt 0.096610 0.014935
vt 0.096610 0.014485
vt 0.003870 0.015266
vt 0.003870 0.014862
vt 0.003870 0.014455
vt 0.003870 0.014044
vt 0.096610 0.014032
vt 0.096610 0.013579
vt 0.105450 0.014183
vt 0.105450 0.013721
vt 4.196065 0.005581
vt 4.196065 0.005116
vt 4.196065 0.004653
vt 4.196065 0.004192
vt 0.105450 0.013259
vt 0.105450 0.012797
vt 0.096610 0.013125
vt 0.096610 0.012671
vt 0.003870 0.013627
vt 0.003870 0.013201
vt 0.003870 0.012764
vt 0.003870 0.012316
vt 0.096610 0.012216
vt 0.096610 0.011761
vt 0.105450 0.012335
vt 0.105450 0.011872
vt 4.196065 0.003733
vt 4.196065 0.003277
vt 4.196065 0.002822
vt 0.105450 0.011410
vt 0.096610 0.011307
vt 0.096610 0.010853
vt 0.003870 0.011857
vt 0.003870 0.011387
vt 0.105450 0.010485
s 1
usemtl corde_zigrinate
f 8/4/1 9/5/2 12/8/3 3/3/4
f 11/7/5 9/5/2 10/6/6 15/11/7
f 13/9/8 12/8/3 9/5/2 11/7/5
f 14/10/9 1/1/10 12/8/3 13/9/8
f 18/14/11 20/16/12 21/17/13 19/15/13
f 25/20/14 23/18/15 24/19/16 26/21/17
f 16/12/18 17/13/19 23/18/15 25/20/14
f 44/22/20 45/23/21 51/26/22 52/27/23
f 53/28/24 55/30/25 56/31/26 54/29/27
f 58/33/28 56/31/26 55/30/25 57/32/29
f 50/25/30 49/24/31 59/34/32 57/32/33
f 2/2/34 60/35/35 56/31/26 58/33/28
f 54/29/27 56/31/26 60/35/35 61/36/36
f 61/36/36 60/35/35 1/1/10 14/10/9
f 62/37/37 63/38/38 182/161/39 64/39/40
f 65/40/41 75/50/42 63/38/38 62/37/37
f 64/39/40 67/42/43 66/41/44 62/37/37
f 62/37/37 66/41/44 68/43/45 65/40/41
f 65/40/41 68/43/45 69/44/46 71/46/47
f 71/46/47 69/44/46 70/45/48 72/47/49
f 72/47/49 74/49/50 73/48/51 71/46/47
f 76/51/52 74/49/50 79/54/53 77/52/54
f 77/52/54 79/54/53 80/55/55 78/53/56
f 82/57/57 80/55/55 79/54/53 81/56/58
f 81/56/58 79/54/53 74/49/50 72/47/49
f 72/47/49 70/45/48 83/58/59 81/56/58
f 82/57/57 84/59/60 85/60/61 87/62/62
f 87/62/62 85/60/61 86/61/63 88/63/64
f 88/63/64 90/65/65 89/64/66 87/62/62
f 87/62/62 89/64/66 80/55/55 82/57/57
f 92/67/67 94/69/68 110/85/69 93/68/70
f 95/70/71 96/71/72 94/69/68 92/67/67
f 91/66/73 90/65/65 96/71/72 95/70/71
f 97/72/74 96/71/72 90/65/65 88/63/64
f 99/74/75 94/69/68 96/71/72 97/72/74
f 88/63/64 86/61/63 98/73/76 97/72/74
f 97/72/74 98/73/76 101/76/77 99/74/75
f 99/74/75 101/76/77 102/77/78 100/75/79
f 100/75/79 110/85/69 94/69/68 99/74/75
f 100/75/79 102/77/78 103/78/80 105/80/81
f 105/80/81 103/78/80 104/79/82 106/81/83
f 106/81/83 108/83/84 107/82/85 105/80/81
f 105/80/81 107/82/85 110/85/69 100/75/79
f 109/84/86 107/82/85 108/83/84 111/86/87
f 93/68/70 110/85/69 107/82/85 109/84/86
f 112/87/88 114/89/89 115/90/90 113/88/91
f 111/86/87 108/83/84 114/89/89 112/87/88
f 117/92/92 115/90/90 114/89/89 116/91/93
f 116/91/93 114/89/89 108/83/84 106/81/83
f 116/91/93 118/93/94 119/94/95 117/92/92
f 106/81/83 104/79/82 118/93/94 116/91/93
f 117/92/92 119/94/95 120/95/96 122/98/97
f 122/98/97 120/95/96 121/96/98 123/99/99
f 123/99/99 125/102/100 124/101/101 122/98/97
f 122/98/97 124/101/101 115/90/90 117/92/92
f 126/104/102 124/101/101 125/102/100 127/105/103
f 113/88/91 115/90/90 124/101/101 126/104/102
f 128/107/104 130/109/105 131/110/106 129/108/107
f 127/106/103 125/103/100 130/109/105 128/107/104
f 133/112/108 131/110/106 130/109/105 132/111/109
f 132/111/109 130/109/105 125/103/100 123/100/99
f 132/111/109 134/113/110 135/114/111 133/112/108
f 123/100/99 121/97/98 134/113/110 132/111/109
f 133/112/108 135/114/111 136/115/112 138/117/113
f 138/117/113 136/115/112 137/116/114 139/118/115
f 139/118/115 141/120/116 140/119/117 138/117/113
f 138/117/113 140/119/117 131/110/106 133/112/108
f 142/121/118 140/119/117 141/120/116 143/122/119
f 129/108/107 131/110/106 140/119/117 142/121/118
f 144/123/120 146/125/121 147/126/122 145/124/123
f 143/122/119 141/120/116 146/125/121 144/123/120
f 149/128/124 147/126/122 146/125/121 148/127/125
f 148/127/125 146/125/121 141/120/116 139/118/115
f 148/127/125 150/129/126 151/130/127 149/128/124
f 139/118/115 137/116/114 150/129/126 148/127/125
f 149/128/124 151/130/127 152/131/128 154/133/129
f 154/133/129 152/131/128 153/132/130 155/134/131
f 155/134/131 157/136/132 156/135/133 154/133/129
f 154/133/129 156/135/133 147/126/122 149/128/124
f 158/137/134 156/135/133 157/136/132 159/138/135
f 145/124/123 147/126/122 156/135/133 158/137/134
f 160/139/136 162/141/137 163/142/138 161/140/139
f 159/138/135 157/136/132 162/141/137 160/139/136
f 165/144/140 163/142/138 162/141/137 164/143/141
f 164/143/141 162/141/137 157/136/132 155/134/131
f 164/143/141 166/145/142 167/146/143 165/144/140
f 155/134/131 153/132/130 166/145/142 164/143/141
f 165/144/140 167/146/143 168/147/144 170/149/145
f 170/149/145 168/147/144 169/148/146 171/150/147
f 171/150/147 173/152/148 172/151/149 170/149/145
f 170/149/145 172/151/149 163/142/138 165/144/140
f 174/153/150 172/151/149 173/152/148 175/154/151
f 175/154/151 173/152/148 177/156/152 176/155/153
f 178/157/154 177/156/152 173/152/148 171/150/147
f 178/157/155 180/159/156 181/160/157 179/158/158
f 179/158/158 181/160/157 67/42/43 64/39/40
l 19 17
l 22 21
l 30 29
l 42 41
l 2 5
l 31 30
l 43 42
l 3 6
l 20 7
l 27 34
l 46 43
l 48 47
l 4 5
l 4 6
l 28 29
l 33 32
l 35 32
l 37 36
l 38 36
l 41 40
l 49 48
