# Blender 3.4.1
# www.blender.org
mtllib cordas_008.mtl
o cordas.008
v -0.011884 0.013357 -0.360452
v -0.011996 0.013368 -0.360452
v -0.011777 0.013324 -0.360452
v -0.014460 0.009942 0.290543
v -0.014361 0.009889 0.290542
v -0.014567 0.009974 0.290543
v -0.014457 0.009931 0.291926
v -0.014358 0.009878 0.291926
v -0.014564 0.009964 0.291927
v -0.014457 0.006881 0.305158
v -0.014564 0.006904 0.305181
v -0.014358 0.006844 0.305120
v -0.014456 0.003161 0.305278
v -0.014563 0.003160 0.305310
v -0.014357 0.003161 0.305225
v -0.014270 0.003162 0.305154
v -0.014272 0.006794 0.305070
v -0.014199 0.003163 0.305067
v -0.014200 0.006733 0.305008
v -0.014146 0.003164 0.304968
v -0.014148 0.006664 0.304937
v -0.014114 0.003165 0.304861
v -0.014115 0.006589 0.304861
v -0.014103 0.003166 0.304750
v -0.014104 0.006511 0.304781
v -0.014114 0.003167 0.304638
v -0.014115 0.006433 0.304702
v -0.014146 0.003168 0.304531
v -0.014148 0.006358 0.304625
v -0.014199 0.003169 0.304432
v -0.014201 0.006289 0.304555
v -0.014270 0.003169 0.304346
v -0.014272 0.006228 0.304493
v -0.014357 0.003170 0.304274
v -0.014358 0.006178 0.304442
v -0.014456 0.003171 0.304222
v -0.014457 0.006141 0.304405
v -0.014563 0.003171 0.304189
v -0.014674 0.003171 0.304178
v -0.014564 0.006118 0.304381
v -0.014676 0.006111 0.304374
v -0.014564 0.008843 0.291916
v -0.014675 0.008832 0.291916
v -0.014567 0.008853 0.290533
v -0.014457 0.008875 0.291916
v -0.014460 0.008886 0.290533
v -0.014358 0.008928 0.291917
v -0.014361 0.008939 0.290533
v -0.014271 0.008999 0.291918
v -0.014275 0.009010 0.290534
v -0.014200 0.009086 0.291918
v -0.014204 0.009096 0.290535
v -0.014147 0.009184 0.291919
v -0.014151 0.009195 0.290536
v -0.014115 0.009292 0.291920
v -0.014118 0.009302 0.290537
v -0.014104 0.009403 0.291921
v -0.014107 0.009414 0.290538
v -0.014115 0.009515 0.291923
v -0.014118 0.009525 0.290539
v -0.014147 0.009622 0.291924
v -0.014151 0.009632 0.290540
v -0.014200 0.009721 0.291924
v -0.014204 0.009731 0.290541
v -0.014271 0.009807 0.291925
v -0.014275 0.009818 0.290542
v -0.011678 0.013271 -0.360453
v -0.011592 0.013200 -0.360453
v -0.011521 0.013114 -0.360454
v -0.011468 0.013015 -0.360455
v -0.011435 0.012908 -0.360456
v -0.011424 0.012796 -0.360457
v -0.011468 0.012578 -0.360459
v -0.011435 0.012685 -0.360458
v -0.011521 0.012479 -0.360460
v -0.011592 0.012392 -0.360461
v -0.011678 0.012321 -0.360461
v -0.011884 0.012236 -0.360462
v -0.011996 0.012225 -0.360462
v -0.011777 0.012268 -0.360462
v -0.014679 0.008842 0.290533
v -0.014790 0.008853 0.290533
v -0.014897 0.008886 0.290533
v -0.014787 0.008843 0.291916
v -0.014894 0.008875 0.291916
v -0.014787 0.006118 0.304381
v -0.014786 0.003171 0.304189
v -0.014894 0.006141 0.304405
v -0.014993 0.006178 0.304442
v -0.014893 0.003171 0.304222
v -0.014992 0.003170 0.304275
v -0.015079 0.003169 0.304346
v -0.015080 0.006228 0.304493
v -0.015150 0.003169 0.304432
v -0.015151 0.006289 0.304555
v -0.015202 0.003168 0.304531
v -0.015204 0.006358 0.304625
v -0.015235 0.003167 0.304638
v -0.015236 0.006433 0.304702
v -0.015246 0.003166 0.304750
v -0.015247 0.006511 0.304781
v -0.015235 0.003165 0.304861
v -0.015236 0.006589 0.304861
v -0.015202 0.003164 0.304968
v -0.015204 0.006664 0.304937
v -0.015150 0.003163 0.305067
v -0.015151 0.006733 0.305008
v -0.015079 0.003162 0.305154
v -0.015080 0.006794 0.305070
v -0.014992 0.003161 0.305225
v -0.014993 0.006844 0.305120
v -0.014893 0.003161 0.305278
v -0.014894 0.006881 0.305158
v -0.014786 0.003160 0.305310
v -0.014787 0.006904 0.305181
v -0.014674 0.003160 0.305321
v -0.014676 0.006911 0.305189
v -0.014675 0.009975 0.291927
v -0.014679 0.009985 0.290543
v -0.014787 0.009964 0.291927
v -0.014790 0.009974 0.290543
v -0.014894 0.009931 0.291926
v -0.014897 0.009942 0.290543
v -0.014993 0.009878 0.291926
v -0.014996 0.009889 0.290542
v -0.015079 0.009807 0.291925
v -0.015083 0.009818 0.290542
v -0.015150 0.009721 0.291924
v -0.015154 0.009731 0.290541
v -0.015203 0.009622 0.291924
v -0.015207 0.009632 0.290540
v -0.015236 0.009515 0.291923
v -0.015239 0.009525 0.290539
v -0.015247 0.009403 0.291921
v -0.015250 0.009414 0.290538
v -0.015236 0.009292 0.291920
v -0.015239 0.009302 0.290537
v -0.015203 0.009184 0.291919
v -0.015207 0.009195 0.290536
v -0.015150 0.009086 0.291918
v -0.015154 0.009096 0.290535
v -0.015079 0.008999 0.291918
v -0.015083 0.009010 0.290534
v -0.014993 0.008928 0.291917
v -0.014996 0.008939 0.290533
v -0.012215 0.012268 -0.360462
v -0.012313 0.012321 -0.360461
v -0.012107 0.012236 -0.360462
v -0.012400 0.012392 -0.360461
v -0.012471 0.012479 -0.360460
v -0.012524 0.012578 -0.360459
v -0.012556 0.012685 -0.360458
v -0.012567 0.012796 -0.360457
v -0.012556 0.012908 -0.360456
v -0.012524 0.013015 -0.360455
v -0.012471 0.013114 -0.360454
v -0.012313 0.013271 -0.360453
v -0.012215 0.013324 -0.360452
v -0.012400 0.013200 -0.360453
v -0.012107 0.013357 -0.360452
vn 0.0970 0.9953 0.0056
vn 0.1464 0.9892 0.0063
vn 0.3366 0.9416 0.0062
vn 0.2906 0.9568 0.0062
vn 0.5139 0.8578 0.0058
vn 0.4722 0.8815 0.0080
vn 0.3681 0.9235 0.1082
vn 0.5375 0.8374 0.0989
vn 0.1870 0.9757 0.1143
vn 0.4072 0.5806 0.7050
vn 0.5818 0.5142 0.6301
vn 0.2098 0.6237 0.7530
vn 0.1702 0.0336 0.9848
vn 0.3381 0.0301 0.9406
vn 0.5010 0.0244 0.8651
vn 0.6539 0.0177 0.7564
vn 0.7282 0.4297 0.5339
vn 0.7905 0.0106 0.6123
vn 0.8427 0.3338 0.4224
vn 0.9009 0.0045 0.4339
vn 0.9258 0.2305 0.2996
vn 0.9741 0.0008 0.2263
vn 0.9777 0.1248 0.1690
vn 1.0000 0.0009 -0.0004
vn 0.9993 0.0192 0.0328
vn 0.9737 0.0054 -0.2279
vn 0.9907 -0.0842 -0.1067
vn 0.8978 0.0140 -0.4403
vn 0.9511 -0.1865 -0.2462
vn 0.7835 0.0250 -0.6209
vn 0.8788 -0.2846 -0.3831
vn 0.6434 0.0372 -0.7646
vn 0.7715 -0.3784 -0.5115
vn 0.4876 0.0486 -0.8717
vn 0.6263 -0.4637 -0.6267
vn 0.3261 0.0578 -0.9436
vn 0.4440 -0.5335 -0.7199
vn 0.1639 0.0637 -0.9844
vn 0.2314 -0.5804 -0.7808
vn -0.0000 0.0658 -0.9978
vn -0.0000 -0.5970 -0.8023
vn 0.1882 -0.9759 -0.1103
vn 0.0001 -0.9937 -0.1117
vn 0.3714 -0.9225 -0.1050
vn 0.2430 -0.9700 -0.0057
vn 0.0482 -0.9988 -0.0060
vn 0.4274 -0.9040 -0.0054
vn 0.5956 -0.8033 -0.0046
vn 0.5425 -0.8346 -0.0960
vn 0.7412 -0.6713 -0.0038
vn 0.6954 -0.7138 -0.0831
vn 0.8575 -0.5144 -0.0026
vn 0.8233 -0.5637 -0.0665
vn 0.9415 -0.3370 -0.0014
vn 0.9205 -0.3879 -0.0464
vn 0.9892 -0.1467 -0.0002
vn 0.9806 -0.1946 -0.0236
vn 0.9988 0.0498 0.0012
vn 1.0000 0.0070 0.0005
vn 0.9700 0.2433 0.0023
vn 0.9777 0.2087 0.0247
vn 0.9039 0.4277 0.0034
vn 0.9156 0.3992 0.0474
vn 0.8031 0.5959 0.0045
vn 0.8177 0.5716 0.0681
vn 0.6715 0.7410 0.0052
vn 0.6892 0.7195 0.0851
vn 0.6374 0.7705 0.0076
vn 0.7737 0.6335 0.0065
vn 0.8817 0.4717 0.0061
vn 0.9566 0.2914 0.0065
vn 0.9950 0.0992 0.0067
vn 0.9950 -0.0993 0.0036
vn 0.9561 -0.2931 0.0048
vn 0.8809 -0.4734 0.0025
vn 0.7732 -0.6342 0.0004
vn 0.6362 -0.7715 0.0001
vn 0.4736 -0.8807 0.0001
vn 0.0971 -0.9953 -0.0031
vn -0.1472 -0.9891 -0.0063
vn -0.0991 -0.9951 -0.0056
vn 0.2905 -0.9569 -0.0038
vn -0.1883 -0.9760 -0.1098
vn -0.3373 -0.9414 -0.0063
vn -0.2899 -0.9570 -0.0055
vn -0.3712 -0.9227 -0.1041
vn -0.2312 -0.5804 -0.7808
vn -0.4446 -0.5331 -0.7198
vn -0.1633 0.0635 -0.9845
vn -0.3266 0.0575 -0.9434
vn -0.4878 0.0482 -0.8716
vn -0.6258 -0.4643 -0.6267
vn -0.5427 -0.8346 -0.0947
vn -0.6427 0.0366 -0.7652
vn -0.7712 -0.3787 -0.5116
vn -0.7837 0.0244 -0.6207
vn -0.8788 -0.2851 -0.3826
vn -0.8983 0.0131 -0.4391
vn -0.9512 -0.1864 -0.2458
vn -0.9738 0.0046 -0.2276
vn -0.9907 -0.0845 -0.1065
vn -1.0000 0.0003 -0.0002
vn -0.9993 0.0189 0.0329
vn -0.9740 0.0001 0.2266
vn -0.9776 0.1244 0.1696
vn -0.9010 0.0039 0.4338
vn -0.9259 0.2302 0.2996
vn -0.7902 0.0101 0.6128
vn -0.8429 0.3333 0.4225
vn -0.6536 0.0173 0.7567
vn -0.7282 0.4296 0.5340
vn -0.5011 0.0242 0.8651
vn -0.5821 0.5142 0.6299
vn -0.3374 0.0300 0.9409
vn -0.4070 0.5805 0.7052
vn -0.1699 0.0335 0.9849
vn -0.2098 0.6238 0.7529
vn -0.0000 0.0348 0.9994
vn -0.0003 0.6384 0.7697
vn 0.0001 0.9932 0.1161
vn -0.1869 0.9757 0.1148
vn -0.2434 0.9699 0.0059
vn -0.0493 0.9988 0.0062
vn -0.4277 0.9039 0.0053
vn -0.3678 0.9235 0.1092
vn -0.5952 0.8036 0.0047
vn -0.5374 0.8374 0.1002
vn -0.7410 0.6715 0.0036
vn -0.6893 0.7192 0.0869
vn -0.8580 0.5137 0.0027
vn -0.8172 0.5720 0.0699
vn -0.9416 0.3367 0.0014
vn -0.9152 0.3998 0.0499
vn -0.9892 0.1467 0.0002
vn -0.9776 0.2087 0.0270
vn -0.9988 -0.0489 -0.0011
vn -1.0000 0.0069 0.0026
vn -0.9700 -0.2429 -0.0023
vn -0.9806 -0.1947 -0.0214
vn -0.9041 -0.4272 -0.0033
vn -0.9205 -0.3882 -0.0442
vn -0.8032 -0.5956 -0.0044
vn -0.8235 -0.5636 -0.0644
vn -0.6714 -0.7411 -0.0051
vn -0.6961 -0.7133 -0.0814
vn -0.5140 -0.8578 -0.0059
vn -0.4697 -0.8828 -0.0057
vn -0.6332 -0.7739 -0.0065
vn -0.7722 -0.6354 -0.0065
vn -0.8823 -0.4707 -0.0061
vn -0.9568 -0.2908 -0.0054
vn -0.9951 -0.0986 -0.0045
vn -0.9953 0.0970 -0.0031
vn -0.9572 0.2894 -0.0011
vn -0.8825 0.4703 -0.0001
vn -0.7727 0.6348 0.0001
vn -0.4710 0.8821 0.0026
vn -0.2902 0.9569 0.0049
vn -0.6339 0.7734 0.0028
vn -0.0987 0.9951 0.0048
vt 3.360033 0.022326
vt 3.360033 0.023347
vt 3.360033 0.021306
vt 0.105004 0.022635
vt 0.105004 0.021598
vt 0.105004 0.023670
vt 0.098867 0.022769
vt 0.098867 0.021764
vt 0.098867 0.023777
vt 0.034363 0.022919
vt 0.034363 0.024062
vt 0.034363 0.021781
vt 0.015109 0.022891
vt 0.015109 0.024185
vt 0.015109 0.021596
vt 0.015109 0.020302
vt 0.034363 0.020652
vt 0.015109 0.019011
vt 0.034363 0.019531
vt 0.015109 0.017730
vt 0.034363 0.018419
vt 0.015109 0.016462
vt 0.034363 0.017311
vt 0.015109 0.015217
vt 0.034363 0.016194
vt 0.015109 0.013996
vt 0.034363 0.015048
vt 0.015109 0.012796
vt 0.034363 0.013853
vt 0.015109 0.011613
vt 0.034363 0.012598
vt 0.015109 0.010442
vt 0.034363 0.011282
vt 0.015109 0.009278
vt 0.034363 0.009915
vt 0.015109 0.008118
vt 0.034363 0.008511
vt 0.015109 0.006960
vt 0.015109 0.005756
vt 0.015109 0.045164
vt 0.034363 0.007086
vt 0.034363 0.005655
vt 0.034363 0.044773
vt 0.098867 0.009979
vt 0.098867 0.008992
vt 0.098867 0.040603
vt 0.105004 0.009153
vt 0.098867 0.010946
vt 0.105004 0.010191
vt 0.098867 0.011914
vt 0.105004 0.011227
vt 0.098867 0.012882
vt 0.105004 0.012263
vt 0.098867 0.013852
vt 0.105004 0.013298
vt 0.098867 0.014823
vt 0.105004 0.014335
vt 0.098867 0.015798
vt 0.105004 0.015372
vt 0.098867 0.016779
vt 0.105004 0.016410
vt 0.098867 0.017767
vt 0.105004 0.017448
vt 0.098867 0.018760
vt 0.105004 0.018485
vt 0.098867 0.019759
vt 0.105004 0.019524
vt 0.098867 0.020760
vt 0.105004 0.020561
vt 3.360033 0.020286
vt 3.360033 0.019268
vt 3.360033 0.018250
vt 3.360033 0.017231
vt 3.360033 0.016211
vt 3.360033 0.015189
vt 3.360033 0.013143
vt 3.360033 0.014167
vt 3.360033 0.012115
vt 3.360033 0.011085
vt 3.360033 0.010053
vt 3.360033 0.040959
vt 3.360033 0.007982
vt 3.360033 0.039919
vt 3.360033 0.009018
vt 0.105004 0.008105
vt 0.105004 0.041223
vt 0.105004 0.040183
vt 0.105004 0.039147
vt 0.098867 0.039614
vt 0.098867 0.038646
vt 0.034363 0.043344
vt 0.015109 0.043963
vt 0.034363 0.041920
vt 0.034363 0.040516
vt 0.015109 0.042808
vt 0.015109 0.041650
vt 0.015109 0.040488
vt 0.034363 0.039148
vt 0.015109 0.039321
vt 0.034363 0.037831
vt 0.015109 0.038140
vt 0.034363 0.036574
vt 0.015109 0.036943
vt 0.034363 0.035377
vt 0.015109 0.035723
vt 0.034363 0.034227
vt 0.015109 0.034480
vt 0.034363 0.033107
vt 0.015109 0.033215
vt 0.034363 0.031996
vt 0.015109 0.031935
vt 0.034363 0.030883
vt 0.015109 0.030646
vt 0.034363 0.029760
vt 0.015109 0.029353
vt 0.034363 0.028629
vt 0.015109 0.028060
vt 0.034363 0.027491
vt 0.015109 0.026768
vt 0.034363 0.026348
vt 0.015109 0.025477
vt 0.034363 0.025205
vt 0.098867 0.024786
vt 0.105004 0.024705
vt 0.098867 0.025795
vt 0.105004 0.025737
vt 0.098867 0.026805
vt 0.105004 0.026770
vt 0.098867 0.027813
vt 0.105004 0.027803
vt 0.098867 0.028819
vt 0.105004 0.028836
vt 0.098867 0.029823
vt 0.105004 0.029868
vt 0.098867 0.030823
vt 0.105004 0.030900
vt 0.098867 0.031818
vt 0.105004 0.031931
vt 0.098867 0.032807
vt 0.105004 0.032962
vt 0.098867 0.033789
vt 0.105004 0.033992
vt 0.098867 0.034767
vt 0.105004 0.035021
vt 0.098867 0.035740
vt 0.105004 0.036051
vt 0.098867 0.036710
vt 0.105004 0.037080
vt 0.098867 0.037678
vt 0.105004 0.038113
vt 3.360033 0.037837
vt 3.360033 0.036794
vt 3.360033 0.038878
vt 3.360033 0.035750
vt 3.360033 0.034707
vt 3.360033 0.033665
vt 3.360033 0.032624
vt 3.360033 0.031585
vt 3.360033 0.030547
vt 3.360033 0.029512
vt 3.360033 0.028479
vt 3.360033 0.026421
vt 3.360033 0.025395
vt 3.360033 0.027449
vt 3.360033 0.024370
s 1
usemtl corde_zigrinate
f 2/2/1 6/6/2 4/4/3 1/1/4
f 1/1/4 4/4/3 5/5/5 3/3/6
f 4/4/3 7/7/7 8/8/8 5/5/5
f 6/6/2 9/9/9 7/7/7 4/4/3
f 7/7/7 10/10/10 12/12/11 8/8/8
f 9/9/9 11/11/12 10/10/10 7/7/7
f 11/11/12 14/14/13 13/13/14 10/10/10
f 10/10/10 13/13/14 15/15/15 12/12/11
f 12/12/11 15/15/15 16/16/16 17/17/17
f 17/17/17 16/16/16 18/18/18 19/19/19
f 19/19/19 18/18/18 20/20/20 21/21/21
f 21/21/21 20/20/20 22/22/22 23/23/23
f 23/23/23 22/22/22 24/24/24 25/25/25
f 25/25/25 24/24/24 26/26/26 27/27/27
f 27/27/27 26/26/26 28/28/28 29/29/29
f 29/29/29 28/28/28 30/30/30 31/31/31
f 31/31/31 30/30/30 32/32/32 33/33/33
f 33/33/33 32/32/32 34/34/34 35/35/35
f 35/35/35 34/34/34 36/36/36 37/37/37
f 37/37/37 36/36/36 38/38/38 40/41/39
f 40/41/39 38/38/38 39/39/40 41/42/41
f 42/44/42 40/41/39 41/42/41 43/45/43
f 45/48/44 37/37/37 40/41/39 42/44/42
f 44/47/45 42/44/42 43/45/43 81/85/46
f 46/49/47 45/48/44 42/44/42 44/47/45
f 48/51/48 47/50/49 45/48/44 46/49/47
f 47/50/49 35/35/35 37/37/37 45/48/44
f 50/53/50 49/52/51 47/50/49 48/51/48
f 49/52/51 33/33/33 35/35/35 47/50/49
f 52/55/52 51/54/53 49/52/51 50/53/50
f 51/54/53 31/31/31 33/33/33 49/52/51
f 54/57/54 53/56/55 51/54/53 52/55/52
f 53/56/55 29/29/29 31/31/31 51/54/53
f 56/59/56 55/58/57 53/56/55 54/57/54
f 55/58/57 27/27/27 29/29/29 53/56/55
f 58/61/58 57/60/59 55/58/57 56/59/56
f 57/60/59 25/25/25 27/27/27 55/58/57
f 60/63/60 59/62/61 57/60/59 58/61/58
f 59/62/61 23/23/23 25/25/25 57/60/59
f 62/65/62 61/64/63 59/62/61 60/63/60
f 61/64/63 21/21/21 23/23/23 59/62/61
f 64/67/64 63/66/65 61/64/63 62/65/62
f 63/66/65 19/19/19 21/21/21 61/64/63
f 66/69/66 65/68/67 63/66/65 64/67/64
f 65/68/67 17/17/17 19/19/19 63/66/65
f 5/5/5 8/8/8 65/68/67 66/69/66
f 8/8/8 12/12/11 17/17/17 65/68/67
f 67/70/68 66/69/66 64/67/64 68/71/69
f 3/3/6 5/5/5 66/69/66 67/70/68
f 69/72/70 62/65/62 60/63/60 70/73/71
f 68/71/69 64/67/64 62/65/62 69/72/70
f 70/73/71 60/63/60 58/61/58 71/74/72
f 71/74/72 58/61/58 56/59/56 72/75/73
f 74/77/74 54/57/54 52/55/52 73/76/75
f 72/75/73 56/59/56 54/57/54 74/77/74
f 73/76/75 52/55/52 50/53/50 75/78/76
f 75/78/76 50/53/50 48/51/48 76/79/77
f 76/79/77 48/51/48 46/49/47 77/80/78
f 78/81/79 81/86/46 82/87/80 79/83/81
f 80/84/82 44/47/45 81/85/46 78/82/79
f 81/86/46 43/46/43 84/89/83 82/87/80
f 79/83/81 82/87/80 83/88/84 148/153/85
f 82/87/80 84/89/83 85/90/86 83/88/84
f 84/89/83 86/91/87 88/93/88 85/90/86
f 43/46/43 41/43/41 86/91/87 84/89/83
f 41/43/41 39/40/40 87/92/89 86/91/87
f 86/91/87 87/92/89 90/95/90 88/93/88
f 88/93/88 90/95/90 91/96/91 89/94/92
f 85/90/86 88/93/88 89/94/92 144/149/93
f 89/94/92 91/96/91 92/97/94 93/98/95
f 93/98/95 92/97/94 94/99/96 95/100/97
f 95/100/97 94/99/96 96/101/98 97/102/99
f 97/102/99 96/101/98 98/103/100 99/104/101
f 99/104/101 98/103/100 100/105/102 101/106/103
f 101/106/103 100/105/102 102/107/104 103/108/105
f 103/108/105 102/107/104 104/109/106 105/110/107
f 105/110/107 104/109/106 106/111/108 107/112/109
f 107/112/109 106/111/108 108/113/110 109/114/111
f 109/114/111 108/113/110 110/115/112 111/116/113
f 111/116/113 110/115/112 112/117/114 113/118/115
f 113/118/115 112/117/114 114/119/116 115/120/117
f 115/120/117 114/119/116 116/121/118 117/122/119
f 117/122/119 116/121/118 14/14/13 11/11/12
f 118/123/120 117/122/119 11/11/12 9/9/9
f 120/125/121 115/120/117 117/122/119 118/123/120
f 121/126/122 120/125/121 118/123/120 119/124/123
f 119/124/123 118/123/120 9/9/9 6/6/2
f 123/128/124 122/127/125 120/125/121 121/126/122
f 122/127/125 113/118/115 115/120/117 120/125/121
f 125/130/126 124/129/127 122/127/125 123/128/124
f 124/129/127 111/116/113 113/118/115 122/127/125
f 127/132/128 126/131/129 124/129/127 125/130/126
f 126/131/129 109/114/111 111/116/113 124/129/127
f 129/134/130 128/133/131 126/131/129 127/132/128
f 128/133/131 107/112/109 109/114/111 126/131/129
f 131/136/132 130/135/133 128/133/131 129/134/130
f 130/135/133 105/110/107 107/112/109 128/133/131
f 133/138/134 132/137/135 130/135/133 131/136/132
f 132/137/135 103/108/105 105/110/107 130/135/133
f 135/140/136 134/139/137 132/137/135 133/138/134
f 134/139/137 101/106/103 103/108/105 132/137/135
f 137/142/138 136/141/139 134/139/137 135/140/136
f 136/141/139 99/104/101 101/106/103 134/139/137
f 139/144/140 138/143/141 136/141/139 137/142/138
f 138/143/141 97/102/99 99/104/101 136/141/139
f 141/146/142 140/145/143 138/143/141 139/144/140
f 140/145/143 95/100/97 97/102/99 138/143/141
f 143/148/144 142/147/145 140/145/143 141/146/142
f 142/147/145 93/98/95 95/100/97 140/145/143
f 145/150/146 144/149/93 142/147/145 143/148/144
f 144/149/93 89/94/92 93/98/95 142/147/145
f 83/88/84 85/90/86 144/149/93 145/150/146
f 146/151/147 145/150/146 143/148/144 147/152/148
f 148/153/85 83/88/84 145/150/146 146/151/147
f 149/154/149 141/146/142 139/144/140 150/155/150
f 147/152/148 143/148/144 141/146/142 149/154/149
f 150/155/150 139/144/140 137/142/138 151/156/151
f 151/156/151 137/142/138 135/140/136 152/157/152
f 152/157/152 135/140/136 133/138/134 153/158/153
f 153/158/153 133/138/134 131/136/132 154/159/154
f 154/159/154 131/136/132 129/134/130 155/160/155
f 155/160/155 129/134/130 127/132/128 156/161/156
f 157/162/157 123/128/124 121/126/122 158/163/158
f 159/164/159 125/130/126 123/128/124 157/162/157
f 156/161/156 127/132/128 125/130/126 159/164/159
f 158/163/158 121/126/122 119/124/123 160/165/160
f 160/165/160 119/124/123 6/6/2 2/2/1
f 77/80/78 46/49/47 44/47/45 80/84/82
